# xmcd CD database file
#
# Track frame offsets:
#	150
#	13622
#	29607
#	43124
#	54861
#	65281
#	77770
#	89392
#	102759
#	115149
#	128791
#	139903
#	150067
#	160779
#	173039
#	184111
#	192858
#	203795
#
# Disc length: 2929 seconds
#
# Revision: 1
# Processed by: cddbd v1.5.1PL2 Copyright (c) Steve Scherf et al.
# Submitted via: Feurio! 1.68 - http://www.feurio.com
#
DISCID=e00b6f12
DTITLE=Country Ladies - Honky Tonk Angels
DYEAR=1900
DGENRE=Country
TTITLE0=Lynn Anderson - Rose Garden
TTITLE1=Billie Jo Spears - Blanket on the Ground
TTITLE2=Patti Page - Tennessee Waltz
TTITLE3=Sandy Posney - Single Girl
TTITLE4=Dolly Parton - Release Me
TTITLE5=Skeeter Davis - The End of the World
TTITLE6=Patsy Cline - The Heart You Break May Be Your Own
TTITLE7=Donna Fargo - Daddy
TTITLE8=Wanda Jackson - Right or Wrong
TTITLE9=Wilma Burgess - Baby
TTITLE10=Sammy Smith - Help Me Make it Throught the Night
TTITLE11=Jan Howard - The One You Sleep Around With
TTITLE12=Barbara Mandrell - The Wayward Wind
TTITLE13=Lynn Anderson - How Can I Unlove You
TTITLE14=Dolly Parton - Honky Tonk Angels
TTITLE15=Sandy Posney - Born a Woman
TTITLE16=Maxine Brown - Anne Murray
TTITLE17=There Goes my Everything
EXTD=
EXTT0=
EXTT1=
EXTT2=
EXTT3=
EXTT4=
EXTT5=
EXTT6=
EXTT7=
EXTT8=
EXTT9=
EXTT10=
EXTT11=
EXTT12=
EXTT13=
EXTT14=
EXTT15=
EXTT16=
EXTT17=
PLAYORDER=
